<?xml version="1.0" encoding="iso-8859-1"?>
<!-- Generator: Adobe Illustrator 19.0.0, SVG Export Plug-In . SVG Version: 6.00 Build 0)  -->
<svg version="1.1" id="Layer_1" xmlns="http://www.w3.org/2000/svg" xmlns:xlink="http://www.w3.org/1999/xlink" x="0px" y="0px"
	 viewBox="0 0 511.984 511.984" style="enable-background:new 0 0 511.984 511.984;" xml:space="preserve">
<path style="fill:#F6BB42;" d="M277.308,149.449h-42.632c-5.891,0-10.672-4.773-10.672-10.664s4.781-10.664,10.672-10.664h42.632
	c5.905,0,10.687,4.773,10.687,10.664S283.214,149.449,277.308,149.449z"/>
<path style="fill:#FFCE54;" d="M405.273,362.707c-141.332,0-255.906-114.582-255.906-255.913c0-31.765,5.797-62.186,16.374-90.255
	C68.947,53.03,0.09,146.512,0.09,256.078c0,141.331,114.575,255.906,255.914,255.906c109.551,0,203.048-68.857,239.517-165.651
	C467.458,356.911,437.054,362.707,405.273,362.707z"/>
<path style="fill:#F6BB42;" d="M277.308,490.656c-141.316,0-255.89-114.574-255.89-255.906c0-65.217,24.405-124.738,64.561-169.924
	C33.292,111.7,0.09,180.002,0.09,256.078c0,141.331,114.575,255.906,255.914,255.906c76.053,0,144.363-33.203,191.235-85.903
	C402.055,466.265,342.524,490.656,277.308,490.656z"/>
<path style="fill:#4A89DC;" d="M383.961,138.785c0,5.891-4.781,10.664-10.688,10.664c-5.875,0-10.656-4.773-10.656-10.664
	s4.781-10.664,10.656-10.664C379.18,128.121,383.961,132.894,383.961,138.785z"/>
<path style="fill:#48CFAD;" d="M330.65,245.414c0,5.883-4.781,10.664-10.687,10.664c-5.875,0-10.656-4.781-10.656-10.664
	c0-5.891,4.781-10.664,10.656-10.664C325.869,234.75,330.65,239.523,330.65,245.414z"/>
<path style="fill:#ED5564;" d="M511.894,117.285c0,5.891-4.781,10.664-10.656,10.664c-5.874,0-10.655-4.773-10.655-10.664
	c0-5.89,4.781-10.663,10.655-10.663C507.113,106.622,511.894,111.395,511.894,117.285z"/>
<path style="fill:#AC92EB;" d="M319.964,10.656c0,5.891-4.75,10.664-10.656,10.664c-5.875,0-10.656-4.773-10.656-10.664
	C298.652,4.773,303.433,0,309.308,0C315.214,0,319.964,4.773,319.964,10.656z"/>
<path style="fill:#FFCE54;" d="M256.004,96.13c-5.891,0-10.672,4.781-10.672,10.664v63.982c0,5.883,4.781,10.656,10.672,10.656
	c5.875,0,10.656-4.773,10.656-10.656v-63.982C266.66,100.911,261.879,96.13,256.004,96.13z"/>
<path style="fill:#F6BB42;" d="M437.272,213.423c-5.906,0-10.656,4.773-10.656,10.664v63.967c0,5.906,4.75,10.672,10.656,10.672
	c5.874,0,10.654-4.766,10.654-10.672v-63.967C447.927,218.197,443.146,213.423,437.272,213.423z"/>
<path style="fill:#FFCE54;" d="M458.583,266.734H415.93c-5.875,0-10.656-4.773-10.656-10.656c0-5.891,4.781-10.664,10.656-10.664
	h42.653c5.906,0,10.656,4.773,10.656,10.664C469.239,261.961,464.489,266.734,458.583,266.734z"/>

</svg>
