<?xml version="1.0" encoding="iso-8859-1"?>
<!-- Generator: Adobe Illustrator 16.0.0, SVG Export Plug-In . SVG Version: 6.00 Build 0)  -->
<!DOCTYPE svg PUBLIC "-//W3C//DTD SVG 1.1//EN" "http://www.w3.org/Graphics/SVG/1.1/DTD/svg11.dtd">
<svg xmlns="http://www.w3.org/2000/svg" xmlns:xlink="http://www.w3.org/1999/xlink" version="1.1" id="Layer_1" x="0px" y="0px" width="512" height="512" viewBox="0 0 330 330" style="enable-background:new 0 0 330 330;" xml:space="preserve">
<g>
	<path style="fill:#FFB65B;" d="M321.708,151.584l-56.326-28.164l19.915-59.743c1.797-5.39,0.394-11.333-3.624-15.35   s-9.964-5.42-15.35-3.624L206.579,64.62L178.416,8.292C175.876,3.21,170.682,0,165,0s-10.876,3.21-13.416,8.292L123.421,64.62   L63.677,44.704c-5.392-1.797-11.333-0.394-15.35,3.624c-4.018,4.018-5.421,9.96-3.624,15.35l19.914,59.743L8.292,151.584   C3.209,154.125,0,159.319,0,165c0,5.682,3.209,10.876,8.292,13.417l56.325,28.163l-19.914,59.743   c-1.797,5.39-0.394,11.332,3.624,15.35c4.017,4.018,9.96,5.42,15.35,3.624l59.744-19.913l28.163,56.325   C154.124,326.79,159.318,330,165,330s10.876-3.21,13.416-8.291l28.163-56.325l59.744,19.913c5.388,1.797,11.333,0.394,15.35-3.624   c4.018-4.018,5.421-9.96,3.624-15.35l-19.915-59.743l56.326-28.163C326.789,175.876,330,170.682,330,165   C330,159.319,326.789,154.125,321.708,151.584z"/>
	<path style="fill:#FFA828;" d="M321.708,151.584l-56.326-28.164l19.915-59.743c1.797-5.39,0.394-11.333-3.624-15.35   s-9.964-5.42-15.35-3.624L206.579,64.62L178.416,8.292C175.876,3.21,170.682,0,165,0v75v180v75c5.682,0,10.876-3.21,13.416-8.291   l28.163-56.325l59.744,19.913c5.388,1.797,11.333,0.394,15.35-3.624c4.018-4.018,5.421-9.96,3.624-15.35l-19.915-59.743   l56.326-28.163C326.789,175.876,330,170.682,330,165C330,159.319,326.789,154.125,321.708,151.584z"/>
	<path style="fill:#FFDE51;" d="M165,75c-49.627,0-90,40.374-90,90c0,49.627,40.373,90,90,90c49.625,0,90-40.373,90-90   C255,115.374,214.625,75,165,75z"/>
	<path style="fill:#FFD400;" d="M165,75v180c49.625,0,90-40.373,90-90C255,115.374,214.625,75,165,75z"/>
</g>

</svg>
