<svg width="24" height="24" viewBox="0 0 24 24" fill="none" xmlns="http://www.w3.org/2000/svg">
<mask id="mask0_2_76" style="mask-type:alpha" maskUnits="userSpaceOnUse" x="0" y="0" width="24" height="24">
<rect width="24" height="24" fill="#D9D9D9"/>
</mask>
<g mask="url(#mask0_2_76)">
<path fill-rule="evenodd" clip-rule="evenodd" d="M8.4 15.45L7 14L3 18L7 22L8.4 20.55L6.85 19H19V13H17V17H6.85L8.4 15.45ZM5 5V11H7V7H17.15L15.6 8.55L17 10L21 6L17 2L15.6 3.45L17.15 5H5ZM11.9719 10.875L11.0174 9.18182H9.24467L10.9719 12.0909L9.18786 15H10.9833L11.9719 13.2727H12.0174L13.006 15H14.8129L13.006 12.0909L14.7447 9.18182H12.9833L12.0174 10.875H11.9719Z" fill="#1C1B1F"/>
</g>
</svg>
